<?xml version="1.0" encoding="UTF-8"?>
<svg width="326px" height="60px" viewBox="0 0 326 60" version="1.1" xmlns="http://www.w3.org/2000/svg" xmlns:xlink="http://www.w3.org/1999/xlink">
    <title>Group 2@1x</title>
    <g id="Alpha-DAO-brandguide" stroke="none" stroke-width="1" fill="none" fill-rule="evenodd">
        <g id="Desktop" transform="translate(-94.000000, -483.000000)">
            <g id="Group-2" transform="translate(94.000000, 483.000000)">
                <g id="ALPHA-DAO" transform="translate(81.041327, 13.216216)" fill="#000000" fill-rule="nonzero">
                    <path d="M0,28.9459459 L11.1486486,0.567567568 L16.5810811,0.567567568 L27.6486486,28.9459459 L21.4459459,28.9459459 L15.6891892,13.6621622 C15.527027,13.2027027 15.3310811,12.6351351 15.1013514,11.9594595 C14.8716216,11.2837838 14.6351351,10.5675676 14.3918919,9.81081081 C14.1486486,9.05405405 13.9256757,8.33108108 13.722973,7.64189189 C13.5202703,6.9527027 13.3513514,6.39189189 13.2162162,5.95945946 L14.3108108,5.91891892 C14.1486486,6.51351351 13.9662162,7.14189189 13.7635135,7.80405405 C13.5608108,8.46621622 13.3445946,9.14864865 13.1148649,9.85135135 C12.8851351,10.5540541 12.6554054,11.2297297 12.4256757,11.8783784 C12.1959459,12.527027 11.972973,13.1486486 11.7567568,13.7432432 L6.04054054,28.9459459 L0,28.9459459 Z M5.18918919,22.9864865 L7.21621622,18.0405405 L20.1486486,18.0405405 L22.2162162,22.9864865 L5.18918919,22.9864865 Z" id="Shape"></path>
                    <polygon id="Path" points="32.2956056 28.9459459 32.2956056 0.567567568 38.3766867 0.567567568 38.3766867 23.472973 51.2280381 23.472973 51.2280381 28.9459459"></polygon>
                    <path d="M57.5101417,28.9459459 L57.5101417,0.567567568 L69.5506823,0.567567568 C71.253385,0.567567568 72.780412,0.966216216 74.1317634,1.76351351 C75.4831147,2.56081081 76.557439,3.64189189 77.3547363,5.00675676 C78.1520336,6.37162162 78.5506823,7.91891892 78.5506823,9.64864865 C78.5506823,11.4054054 78.1520336,12.9932432 77.3547363,14.4121622 C76.557439,15.8310811 75.4831147,16.9527027 74.1317634,17.777027 C72.780412,18.6013514 71.253385,19.0135135 69.5506823,19.0135135 L63.5912228,19.0135135 L63.5912228,28.9459459 L57.5101417,28.9459459 Z M63.5101417,13.5 L68.9020336,13.5 C69.5236552,13.5 70.0912228,13.3378378 70.6047363,13.0135135 C71.1182498,12.6891892 71.5371688,12.2432432 71.8614931,11.6756757 C72.1858174,11.1081081 72.3479796,10.4594595 72.3479796,9.72972973 C72.3479796,9 72.1858174,8.36486486 71.8614931,7.82432432 C71.5371688,7.28378378 71.1182498,6.85135135 70.6047363,6.52702703 C70.0912228,6.2027027 69.5236552,6.04054054 68.9020336,6.04054054 L63.5101417,6.04054054 L63.5101417,13.5 Z" id="Shape"></path>
                    <path d="M102.521989,28.9459459 L102.521989,0.567567568 L108.60307,0.567567568 L108.60307,28.9459459 L102.521989,28.9459459 Z M84.6030702,28.9459459 L84.6030702,0.567567568 L90.6841513,0.567567568 L90.6841513,28.9459459 L84.6030702,28.9459459 Z M87.0760432,17.5945946 L87.0760432,12 L105.60307,12 L105.60307,17.5945946 L87.0760432,17.5945946 Z" id="Shape"></path>
                    <path d="M113.236532,28.9459459 L124.38518,0.567567568 L129.817613,0.567567568 L140.88518,28.9459459 L134.682478,28.9459459 L128.925721,13.6621622 C128.763559,13.2027027 128.567613,12.6351351 128.337883,11.9594595 C128.108153,11.2837838 127.871667,10.5675676 127.628424,9.81081081 C127.38518,9.05405405 127.162208,8.33108108 126.959505,7.64189189 C126.756802,6.9527027 126.587883,6.39189189 126.452748,5.95945946 L127.547343,5.91891892 C127.38518,6.51351351 127.202748,7.14189189 127.000045,7.80405405 C126.797343,8.46621622 126.581126,9.14864865 126.351397,9.85135135 C126.121667,10.5540541 125.891937,11.2297297 125.662208,11.8783784 C125.432478,12.527027 125.209505,13.1486486 124.993289,13.7432432 L119.277072,28.9459459 L113.236532,28.9459459 Z M118.425721,22.9864865 L120.452748,18.0405405 L133.38518,18.0405405 L135.452748,22.9864865 L118.425721,22.9864865 Z" id="Shape"></path>
                    <path d="M158.571021,28.9459459 L158.571021,0.567567568 L170.246697,0.567567568 C172.300751,0.567567568 174.179129,0.912162162 175.881832,1.60135135 C177.584535,2.29054054 179.043994,3.26351351 180.26021,4.52027027 C181.476426,5.77702703 182.408859,7.27702703 183.057507,9.02027027 C183.706156,10.7635135 184.03048,12.6756757 184.03048,14.7567568 C184.03048,16.8648649 183.706156,18.7837838 183.057507,20.5135135 C182.408859,22.2432432 181.476426,23.7364865 180.26021,24.9932432 C179.043994,26.25 177.591291,27.222973 175.902102,27.9121622 C174.212913,28.6013514 172.327778,28.9459459 170.246697,28.9459459 L158.571021,28.9459459 Z M164.652102,24.4864865 L164.003453,23.472973 L170.043994,23.472973 C171.26021,23.472973 172.348048,23.2702703 173.307507,22.8648649 C174.266967,22.4594595 175.091291,21.8716216 175.78048,21.1013514 C176.46967,20.3310811 176.98994,19.4121622 177.341291,18.3445946 C177.692643,17.277027 177.868318,16.0810811 177.868318,14.7567568 C177.868318,13.4324324 177.692643,12.2364865 177.341291,11.1689189 C176.98994,10.1013514 176.46967,9.18243243 175.78048,8.41216216 C175.091291,7.64189189 174.266967,7.05405405 173.307507,6.64864865 C172.348048,6.24324324 171.26021,6.04054054 170.043994,6.04054054 L163.881832,6.04054054 L164.652102,5.10810811 L164.652102,24.4864865 Z" id="Shape"></path>
                    <path d="M186.001784,28.9459459 L197.150433,0.567567568 L202.582865,0.567567568 L213.650433,28.9459459 L207.44773,28.9459459 L201.690973,13.6621622 C201.528811,13.2027027 201.332865,12.6351351 201.103135,11.9594595 C200.873406,11.2837838 200.636919,10.5675676 200.393676,9.81081081 C200.150433,9.05405405 199.92746,8.33108108 199.724757,7.64189189 C199.522054,6.9527027 199.353135,6.39189189 199.218,5.95945946 L200.312595,5.91891892 C200.150433,6.51351351 199.968,7.14189189 199.765298,7.80405405 C199.562595,8.46621622 199.346379,9.14864865 199.116649,9.85135135 C198.886919,10.5540541 198.657189,11.2297297 198.42746,11.8783784 C198.19773,12.527027 197.974757,13.1486486 197.758541,13.7432432 L192.042325,28.9459459 L186.001784,28.9459459 Z M191.190973,22.9864865 L193.218,18.0405405 L206.150433,18.0405405 L208.218,22.9864865 L191.190973,22.9864865 Z" id="Shape"></path>
                    <path d="M230.054146,29.3513514 C227.973065,29.3513514 226.04739,28.9864865 224.277119,28.2567568 C222.506849,27.527027 220.979822,26.5067568 219.696038,25.1959459 C218.412255,23.8851351 217.412255,22.3378378 216.696038,20.5540541 C215.979822,18.7702703 215.621714,16.8108108 215.621714,14.6756757 C215.621714,12.5675676 215.979822,10.6216216 216.696038,8.83783784 C217.412255,7.05405405 218.412255,5.5 219.696038,4.17567568 C220.979822,2.85135135 222.506849,1.82432432 224.277119,1.09459459 C226.04739,0.364864865 227.973065,-1.15223146e-14 230.054146,-1.15223146e-14 C232.135228,-1.15223146e-14 234.04739,0.364864865 235.790633,1.09459459 C237.533876,1.82432432 239.054146,2.85135135 240.351444,4.17567568 C241.648741,5.5 242.655498,7.05405405 243.371714,8.83783784 C244.08793,10.6216216 244.446038,12.5810811 244.446038,14.7162162 C244.446038,16.7972973 244.08793,18.7297297 243.371714,20.5135135 C242.655498,22.2972973 241.648741,23.8513514 240.351444,25.1756757 C239.054146,26.5 237.533876,27.527027 235.790633,28.2567568 C234.04739,28.9864865 232.135228,29.3513514 230.054146,29.3513514 Z M230.054146,23.5945946 C231.243336,23.5945946 232.33793,23.3716216 233.33793,22.9256757 C234.33793,22.4797297 235.209552,21.8581081 235.952795,21.0608108 C236.696038,20.2635135 237.270363,19.3243243 237.675768,18.2432432 C238.081173,17.1621622 238.283876,15.9864865 238.283876,14.7162162 C238.283876,13.4189189 238.081173,12.2297297 237.675768,11.1486486 C237.270363,10.0675676 236.696038,9.12162162 235.952795,8.31081081 C235.209552,7.5 234.33793,6.87162162 233.33793,6.42567568 C232.33793,5.97972973 231.243336,5.75675676 230.054146,5.75675676 C228.864957,5.75675676 227.763606,5.97972973 226.750092,6.42567568 C225.736579,6.87162162 224.8582,7.49324324 224.114957,8.29054054 C223.371714,9.08783784 222.79739,10.0337838 222.391984,11.1283784 C221.986579,12.222973 221.783876,13.4189189 221.783876,14.7162162 C221.783876,16.4189189 222.141984,17.9391892 222.8582,19.277027 C223.574417,20.6148649 224.554146,21.6689189 225.79739,22.4391892 C227.040633,23.2094595 228.459552,23.5945946 230.054146,23.5945946 Z" id="Shape"></path>
                </g>
                <g id="Group-3">
                    <circle id="Oval" fill="#000000" cx="30" cy="30" r="30"></circle>
                    <g id="α" transform="translate(10.185811, 13.783784)" fill="#FFFFFF" fill-rule="nonzero">
                        <path d="M26.8436293,16.2162162 L25.9749035,13.2625483 C25.492278,11.7181467 24.6332046,10.3088803 23.3976834,9.03474903 C22.3745174,8.03088803 21.2789575,7.28281853 20.1110039,6.79054054 C18.9430502,6.29826255 17.6447876,6.05212355 16.2162162,6.05212355 C14.7876448,6.05212355 13.4555985,6.32239382 12.2200772,6.86293436 C10.984556,7.4034749 9.91312741,8.13223938 9.00579151,9.0492278 C8.0984556,9.96621622 7.37934363,11.042471 6.8484556,12.2779923 C6.31756757,13.5135135 6.05212355,14.8262548 6.05212355,16.2162162 C6.05212355,17.6061776 6.31756757,18.9189189 6.8484556,20.1544402 C7.37934363,21.3899614 8.0984556,22.4662162 9.00579151,23.3832046 C9.91312741,24.3001931 10.984556,25.0289575 12.2200772,25.5694981 C13.4555985,26.1100386 14.7876448,26.3803089 16.2162162,26.3803089 C17.3166023,26.3803089 18.3832046,26.2162162 19.4160232,25.8880309 C20.4488417,25.5598456 21.3996139,25.0723938 22.2683398,24.4256757 C23.1370656,23.7789575 23.9044402,22.9826255 24.5704633,22.0366795 C25.2364865,21.0907336 25.7432432,20.0096525 26.0907336,18.7934363 L26.8436293,16.2162162 Z M29.5366795,25.4826255 C26.023166,30.1158301 21.5830116,32.4324324 16.2162162,32.4324324 C11.7374517,32.4324324 7.91505792,30.8494208 4.74903475,27.6833977 C1.58301158,24.5173745 0,20.6949807 0,16.2162162 C0,11.7374517 1.58301158,7.91505792 4.74903475,4.74903475 C7.91505792,1.58301158 11.7374517,0 16.2162162,0 C18.8803089,0 21.3175676,0.569498069 23.5279923,1.70849421 C25.738417,2.84749035 27.7220077,4.56563707 29.4787645,6.86293436 L30.9266409,2.05598456 C31.1196911,1.43822394 31.4864865,0.941119691 32.027027,0.564671815 C32.5675676,0.188223938 33.1563707,0 33.7934363,0 C34.2181467,0 34.6138996,0.0772200772 34.980695,0.231660232 C35.3474903,0.386100386 35.6660232,0.603281853 35.9362934,0.883204633 C36.2065637,1.16312741 36.4285714,1.48648649 36.6023166,1.85328185 C36.7760618,2.22007722 36.8629344,2.60617761 36.8629344,3.01158301 C36.8629344,3.22393822 36.8339768,3.43629344 36.7760618,3.64864865 L33.0984556,16.1872587 L36.7760618,28.7837838 C36.8339768,29.015444 36.8629344,29.2277992 36.8629344,29.4208494 C36.8629344,29.8262548 36.7760618,30.2123552 36.6023166,30.5791506 C36.4285714,30.9459459 36.2065637,31.269305 35.9362934,31.5492278 C35.6660232,31.8291506 35.3474903,32.046332 34.980695,32.2007722 C34.6138996,32.3552124 34.2181467,32.4324324 33.7934363,32.4324324 C33.1563707,32.4324324 32.5723938,32.2442085 32.0415058,31.8677606 C31.5106178,31.4913127 31.1389961,30.9942085 30.9266409,30.3764479 L29.5366795,25.4826255 Z" id="Shape"></path>
                    </g>
                </g>
            </g>
        </g>
    </g>
</svg>