<?xml version="1.0" encoding="UTF-8"?>
<svg width="326px" height="60px" viewBox="0 0 326 60" version="1.1" xmlns="http://www.w3.org/2000/svg" xmlns:xlink="http://www.w3.org/1999/xlink">
    <title>ALPHA DAO@1x</title>
    <g id="Alpha-DAO-brandguide" stroke="none" stroke-width="1" fill="none" fill-rule="evenodd">
        <g id="Desktop" transform="translate(-602.000000, -483.000000)" fill="#FFFFFF">
            <g id="ALPHA-DAO" transform="translate(602.000000, 483.000000)">
                <path d="M81.0413274,42.1621622 L92.189976,13.7837838 L97.6224085,13.7837838 L108.689976,42.1621622 L102.487273,42.1621622 L96.7305166,26.8783784 C96.5683544,26.4189189 96.3724085,25.8513514 96.1426788,25.1756757 C95.912949,24.5 95.6764625,23.7837838 95.4332193,23.027027 C95.189976,22.2702703 94.9670031,21.5472973 94.7643004,20.8581081 C94.5615977,20.1689189 94.3926788,19.6081081 94.2575436,19.1756757 L95.3521382,19.1351351 C95.189976,19.7297297 95.0075436,20.3581081 94.8048409,21.0202703 C94.6021382,21.6824324 94.385922,22.3648649 94.1561923,23.0675676 C93.9264625,23.7702703 93.6967328,24.4459459 93.4670031,25.0945946 C93.2372733,25.7432432 93.0143004,26.3648649 92.7980842,26.9594595 L87.0818679,42.1621622 L81.0413274,42.1621622 Z M86.2305166,36.2027027 L88.2575436,31.2567568 L101.189976,31.2567568 L103.257544,36.2027027 L86.2305166,36.2027027 Z" id="Shape" fill-rule="nonzero"></path>
                <polygon id="Path" fill-rule="nonzero" points="113.336933 42.1621622 113.336933 13.7837838 119.418014 13.7837838 119.418014 36.6891892 132.269365 36.6891892 132.269365 42.1621622"></polygon>
                <path d="M138.551469,42.1621622 L138.551469,13.7837838 L150.59201,13.7837838 C152.294712,13.7837838 153.821739,14.1824324 155.173091,14.9797297 C156.524442,15.777027 157.598766,16.8581081 158.396064,18.222973 C159.193361,19.5878378 159.59201,21.1351351 159.59201,22.8648649 C159.59201,24.6216216 159.193361,26.2094595 158.396064,27.6283784 C157.598766,29.0472973 156.524442,30.1689189 155.173091,30.9932432 C153.821739,31.8175676 152.294712,32.2297297 150.59201,32.2297297 L144.63255,32.2297297 L144.63255,42.1621622 L138.551469,42.1621622 Z M144.551469,26.7162162 L149.943361,26.7162162 C150.564983,26.7162162 151.13255,26.5540541 151.646064,26.2297297 C152.159577,25.9054054 152.578496,25.4594595 152.90282,24.8918919 C153.227145,24.3243243 153.389307,23.6756757 153.389307,22.9459459 C153.389307,22.2162162 153.227145,21.5810811 152.90282,21.0405405 C152.578496,20.5 152.159577,20.0675676 151.646064,19.7432432 C151.13255,19.4189189 150.564983,19.2567568 149.943361,19.2567568 L144.551469,19.2567568 L144.551469,26.7162162 Z" id="Shape" fill-rule="nonzero"></path>
                <path d="M183.563317,42.1621622 L183.563317,13.7837838 L189.644398,13.7837838 L189.644398,42.1621622 L183.563317,42.1621622 Z M165.644398,42.1621622 L165.644398,13.7837838 L171.725479,13.7837838 L171.725479,42.1621622 L165.644398,42.1621622 Z M168.117371,30.8108108 L168.117371,25.2162162 L186.644398,25.2162162 L186.644398,30.8108108 L168.117371,30.8108108 Z" id="Shape" fill-rule="nonzero"></path>
                <path d="M194.277859,42.1621622 L205.426508,13.7837838 L210.85894,13.7837838 L221.926508,42.1621622 L215.723805,42.1621622 L209.967048,26.8783784 C209.804886,26.4189189 209.60894,25.8513514 209.379211,25.1756757 C209.149481,24.5 208.912994,23.7837838 208.669751,23.027027 C208.426508,22.2702703 208.203535,21.5472973 208.000832,20.8581081 C207.79813,20.1689189 207.629211,19.6081081 207.494075,19.1756757 L208.58867,19.1351351 C208.426508,19.7297297 208.244075,20.3581081 208.041373,21.0202703 C207.83867,21.6824324 207.622454,22.3648649 207.392724,23.0675676 C207.162994,23.7702703 206.933265,24.4459459 206.703535,25.0945946 C206.473805,25.7432432 206.250832,26.3648649 206.034616,26.9594595 L200.3184,42.1621622 L194.277859,42.1621622 Z M199.467048,36.2027027 L201.494075,31.2567568 L214.426508,31.2567568 L216.494075,36.2027027 L199.467048,36.2027027 Z" id="Shape" fill-rule="nonzero"></path>
                <path d="M239.612348,42.1621622 L239.612348,13.7837838 L251.288024,13.7837838 C253.342078,13.7837838 255.220457,14.1283784 256.923159,14.8175676 C258.625862,15.5067568 260.085321,16.4797297 261.301538,17.7364865 C262.517754,18.9932432 263.450186,20.4932432 264.098835,22.2364865 C264.747484,23.9797297 265.071808,25.8918919 265.071808,27.972973 C265.071808,30.0810811 264.747484,32 264.098835,33.7297297 C263.450186,35.4594595 262.517754,36.9527027 261.301538,38.2094595 C260.085321,39.4662162 258.632619,40.4391892 256.943429,41.1283784 C255.25424,41.8175676 253.369105,42.1621622 251.288024,42.1621622 L239.612348,42.1621622 Z M245.693429,37.7027027 L245.044781,36.6891892 L251.085321,36.6891892 C252.301538,36.6891892 253.389375,36.4864865 254.348835,36.0810811 C255.308294,35.6756757 256.132619,35.0878378 256.821808,34.3175676 C257.510997,33.5472973 258.031267,32.6283784 258.382619,31.5608108 C258.73397,30.4932432 258.909646,29.2972973 258.909646,27.972973 C258.909646,26.6486486 258.73397,25.4527027 258.382619,24.3851351 C258.031267,23.3175676 257.510997,22.3986486 256.821808,21.6283784 C256.132619,20.8581081 255.308294,20.2702703 254.348835,19.8648649 C253.389375,19.4594595 252.301538,19.2567568 251.085321,19.2567568 L244.923159,19.2567568 L245.693429,18.3243243 L245.693429,37.7027027 Z" id="Shape" fill-rule="nonzero"></path>
                <path d="M267.043111,42.1621622 L278.19176,13.7837838 L283.624193,13.7837838 L294.69176,42.1621622 L288.489057,42.1621622 L282.732301,26.8783784 C282.570138,26.4189189 282.374193,25.8513514 282.144463,25.1756757 C281.914733,24.5 281.678247,23.7837838 281.435003,23.027027 C281.19176,22.2702703 280.968787,21.5472973 280.766084,20.8581081 C280.563382,20.1689189 280.394463,19.6081081 280.259328,19.1756757 L281.353922,19.1351351 C281.19176,19.7297297 281.009328,20.3581081 280.806625,21.0202703 C280.603922,21.6824324 280.387706,22.3648649 280.157976,23.0675676 C279.928247,23.7702703 279.698517,24.4459459 279.468787,25.0945946 C279.239057,25.7432432 279.016084,26.3648649 278.799868,26.9594595 L273.083652,42.1621622 L267.043111,42.1621622 Z M272.232301,36.2027027 L274.259328,31.2567568 L287.19176,31.2567568 L289.259328,36.2027027 L272.232301,36.2027027 Z" id="Shape" fill-rule="nonzero"></path>
                <path d="M311.095474,42.5675676 C309.014393,42.5675676 307.088717,42.2027027 305.318447,41.472973 C303.548177,40.7432432 302.02115,39.722973 300.737366,38.4121622 C299.453582,37.1013514 298.453582,35.5540541 297.737366,33.7702703 C297.02115,31.9864865 296.663041,30.027027 296.663041,27.8918919 C296.663041,25.7837838 297.02115,23.8378378 297.737366,22.0540541 C298.453582,20.2702703 299.453582,18.7162162 300.737366,17.3918919 C302.02115,16.0675676 303.548177,15.0405405 305.318447,14.3108108 C307.088717,13.5810811 309.014393,13.2162162 311.095474,13.2162162 C313.176555,13.2162162 315.088717,13.5810811 316.83196,14.3108108 C318.575204,15.0405405 320.095474,16.0675676 321.392771,17.3918919 C322.690068,18.7162162 323.696825,20.2702703 324.413041,22.0540541 C325.129258,23.8378378 325.487366,25.7972973 325.487366,27.9324324 C325.487366,30.0135135 325.129258,31.9459459 324.413041,33.7297297 C323.696825,35.5135135 322.690068,37.0675676 321.392771,38.3918919 C320.095474,39.7162162 318.575204,40.7432432 316.83196,41.472973 C315.088717,42.2027027 313.176555,42.5675676 311.095474,42.5675676 Z M311.095474,36.8108108 C312.284663,36.8108108 313.379258,36.5878378 314.379258,36.1418919 C315.379258,35.6959459 316.250879,35.0743243 316.994122,34.277027 C317.737366,33.4797297 318.31169,32.5405405 318.717095,31.4594595 C319.122501,30.3783784 319.325204,29.2027027 319.325204,27.9324324 C319.325204,26.6351351 319.122501,25.4459459 318.717095,24.3648649 C318.31169,23.2837838 317.737366,22.3378378 316.994122,21.527027 C316.250879,20.7162162 315.379258,20.0878378 314.379258,19.6418919 C313.379258,19.1959459 312.284663,18.972973 311.095474,18.972973 C309.906285,18.972973 308.804933,19.1959459 307.79142,19.6418919 C306.777906,20.0878378 305.899528,20.7094595 305.156285,21.5067568 C304.413041,22.3040541 303.838717,23.25 303.433312,24.3445946 C303.027906,25.4391892 302.825204,26.6351351 302.825204,27.9324324 C302.825204,29.6351351 303.183312,31.1554054 303.899528,32.4932432 C304.615744,33.8310811 305.595474,34.8851351 306.838717,35.6554054 C308.08196,36.4256757 309.500879,36.8108108 311.095474,36.8108108 Z" id="Shape" fill-rule="nonzero"></path>
                <path d="M30,0 C46.5685425,0 60,13.4314575 60,30 C60,46.5685425 46.5685425,60 30,60 C13.4314575,60 0,46.5685425 0,30 C0,13.4314575 13.4314575,0 30,0 Z M43.9792471,13.7837838 C43.3421815,13.7837838 42.7533784,13.9720077 42.2128378,14.3484556 C41.6722973,14.7249035 41.3055019,15.2220077 41.1124517,15.8397683 L41.1124517,15.8397683 L39.6645753,20.6467181 C37.9078185,18.3494208 35.9242278,16.6312741 33.7138031,15.492278 C31.5033784,14.3532819 29.0661197,13.7837838 26.402027,13.7837838 C21.9232625,13.7837838 18.1008687,15.3667954 14.9348456,18.5328185 C11.7688224,21.6988417 10.1858108,25.5212355 10.1858108,30 C10.1858108,34.4787645 11.7688224,38.3011583 14.9348456,41.4671815 C18.1008687,44.6332046 21.9232625,46.2162162 26.402027,46.2162162 C31.7688224,46.2162162 36.2089768,43.8996139 39.7224903,39.2664093 L39.7224903,39.2664093 L41.1124517,44.1602317 C41.3248069,44.7779923 41.6964286,45.2750965 42.2273166,45.6515444 C42.7582046,46.0279923 43.3421815,46.2162162 43.9792471,46.2162162 C44.4039575,46.2162162 44.7997104,46.1389961 45.1665058,45.984556 C45.5333012,45.8301158 45.851834,45.6129344 46.1221042,45.3330116 C46.3923745,45.0530888 46.6143822,44.7297297 46.7881274,44.3629344 C46.9618726,43.996139 47.0487452,43.6100386 47.0487452,43.2046332 C47.0487452,43.011583 47.0197876,42.7992278 46.9618726,42.5675676 L46.9618726,42.5675676 L43.2842664,29.9710425 L46.9618726,17.4324324 C47.0197876,17.2200772 47.0487452,17.007722 47.0487452,16.7953668 C47.0487452,16.3899614 46.9618726,16.003861 46.7881274,15.6370656 C46.6143822,15.2702703 46.3923745,14.9469112 46.1221042,14.6669884 C45.851834,14.3870656 45.5333012,14.1698842 45.1665058,14.015444 C44.7997104,13.8610039 44.4039575,13.7837838 43.9792471,13.7837838 Z M26.402027,19.8359073 C27.8305985,19.8359073 29.128861,20.0820463 30.2968147,20.5743243 C31.4647683,21.0666023 32.5603282,21.8146718 33.5834942,22.8185328 C34.8190154,24.0926641 35.6780888,25.5019305 36.1607143,27.046332 L36.1607143,27.046332 L37.0294402,30 L36.2765444,32.5772201 C35.9290541,33.7934363 35.4222973,34.8745174 34.7562741,35.8204633 C34.090251,36.7664093 33.3228764,37.5627413 32.4541506,38.2094595 C31.5854247,38.8561776 30.6346525,39.3436293 29.601834,39.6718147 C28.5690154,40 27.5024131,40.1640927 26.402027,40.1640927 C24.9734556,40.1640927 23.6414093,39.8938224 22.405888,39.3532819 C21.1703668,38.8127413 20.0989382,38.0839768 19.1916023,37.1669884 C18.2842664,36.25 17.5651544,35.1737452 17.0342664,33.9382239 C16.5033784,32.7027027 16.2379344,31.3899614 16.2379344,30 C16.2379344,28.6100386 16.5033784,27.2972973 17.0342664,26.0617761 C17.5651544,24.8262548 18.2842664,23.75 19.1916023,22.8330116 C20.0989382,21.9160232 21.1703668,21.1872587 22.405888,20.6467181 C23.6414093,20.1061776 24.9734556,19.8359073 26.402027,19.8359073 Z" id="Combined-Shape"></path>
            </g>
        </g>
    </g>
</svg>